<svg width="423" height="414" viewBox="0 0 423 414" fill="none" xmlns="http://www.w3.org/2000/svg">
<path d="M325 157C235 240 209.937 414 68 414C-73.9372 414 -189 298.937 -189 157C-189 15.0628 -73.9372 -100 68 -100C209.937 -100 604.5 -29.5 325 157Z" fill="#B3ACFD"/>
<path d="M325 157C235 240 209.937 414 68 414C-73.9372 414 -189 298.937 -189 157C-189 15.0628 -73.9372 -100 68 -100C209.937 -100 604.5 -29.5 325 157Z" fill="#DBF9D9"/>
<path d="M140.092 38.7558V42.0968H138.403C137.703 42.0968 137.046 42.2319 136.432 42.4899C135.818 42.7539 135.277 43.1163 134.817 43.5769C134.356 44.0375 133.994 44.578 133.73 45.1922C133.465 45.8063 133.337 46.4635 133.337 47.1636V55.6083H129.959V47.1636C129.959 45.9906 130.18 44.8912 130.616 43.8779C131.052 42.8645 131.66 41.974 132.434 41.2124C133.208 40.4508 134.11 39.849 135.136 39.4129C136.162 38.9769 137.249 38.7558 138.403 38.7558H140.092ZM118.093 43.6383C117.092 44.6394 116.588 45.8432 116.588 47.2435C116.588 48.0173 116.766 48.7543 117.117 49.4606L118.486 48.091L120.439 46.138C121.127 45.4501 121.79 44.793 122.429 44.1665C123.068 43.5401 123.565 43.0549 123.915 42.7048C122.963 42.2319 121.956 42.0661 120.894 42.2196C119.825 42.3609 118.891 42.8338 118.093 43.6383ZM126.464 49.6817L128.829 52.0462L127.668 53.2069C126.869 54.0054 125.954 54.6195 124.929 55.0433C123.903 55.4732 122.828 55.682 121.698 55.682C120.574 55.682 119.499 55.4732 118.474 55.0433C117.448 54.6195 116.533 54.0054 115.735 53.2069C114.912 52.3778 114.298 51.4504 113.898 50.4125C113.499 49.3746 113.296 48.3182 113.296 47.2373C113.296 46.1564 113.499 45.1123 113.898 44.0867C114.298 43.061 114.912 42.1336 115.735 41.3107C116.564 40.4816 117.497 39.8612 118.529 39.4498C119.567 39.0383 120.63 38.8295 121.704 38.8295C122.779 38.8295 123.842 39.0321 124.88 39.4498C125.917 39.8612 126.851 40.4816 127.674 41.3107L128.835 42.4714L119.487 51.8189C120.439 52.298 121.446 52.4515 122.509 52.2918C123.571 52.126 124.505 51.647 125.303 50.8486L126.464 49.6817ZM110.545 38.7558V42.0968H100.375C99.8955 42.0968 99.4963 42.2565 99.1708 42.5881C98.8453 42.9136 98.6856 43.3128 98.6856 43.7919C98.6856 44.2648 98.8453 44.6763 99.1708 45.0141C99.4963 45.3518 99.8955 45.5177 100.375 45.5177H107.13C107.83 45.5177 108.488 45.6466 109.102 45.9107C109.716 46.1748 110.256 46.531 110.717 46.9794C111.178 47.4338 111.546 47.962 111.804 48.5762C112.068 49.1903 112.197 49.8475 112.197 50.5476C112.197 51.2478 112.068 51.9049 111.804 52.5191C111.54 53.1332 111.178 53.6737 110.717 54.1343C110.256 54.5949 109.716 54.9634 109.102 55.2214C108.488 55.4855 107.83 55.6145 107.13 55.6145H96.9967V52.2734H107.13C107.634 52.2734 108.045 52.1137 108.371 51.7882C108.696 51.4627 108.856 51.0512 108.856 50.5476C108.856 50.0747 108.696 49.6694 108.371 49.3439C108.045 49.0184 107.634 48.8526 107.13 48.8526H100.375C99.6744 48.8526 99.0173 48.7236 98.4031 48.4595C97.7889 48.1954 97.2607 47.833 96.8063 47.3724C96.3518 46.9118 96.0017 46.3713 95.7376 45.7572C95.4797 45.143 95.3446 44.4859 95.3446 43.7857C95.3446 43.0856 95.4797 42.4284 95.7376 41.8143C96.0017 41.2001 96.3579 40.6658 96.8063 40.2175C97.2546 39.7691 97.7889 39.4129 98.4031 39.1488C99.0173 38.8909 99.6744 38.7558 100.375 38.7558H110.545ZM91.0639 52.2673V47.1636C91.0639 46.4635 90.9349 45.8063 90.6708 45.1922C90.4067 44.578 90.0444 44.0437 89.5838 43.5769C89.1231 43.1163 88.5827 42.7478 87.9685 42.4899C87.3543 42.2258 86.6972 42.0968 85.9971 42.0968C85.2969 42.0968 84.6336 42.2319 84.0072 42.4899C83.3807 42.7539 82.8403 43.1163 82.3735 43.5769C81.9129 44.0375 81.5444 44.578 81.2865 45.1922C81.0224 45.8063 80.8934 46.4635 80.8934 47.1636C80.8934 47.8638 81.0224 48.527 81.2865 49.1535C81.5505 49.7799 81.9129 50.3204 82.3735 50.7872C82.8341 51.2478 83.3807 51.6163 84.0072 51.8742C84.6336 52.1383 85.2969 52.2673 85.9971 52.2673H91.0639ZM85.9971 38.7558C87.1762 38.7558 88.2694 38.9769 89.2828 39.4129C90.2962 39.849 91.1867 40.4508 91.9483 41.2124C92.7098 41.974 93.3117 42.8645 93.7478 43.8779C94.1838 44.8912 94.4049 45.9844 94.4049 47.1636V55.6083H85.9971C84.8486 55.6083 83.7554 55.3934 82.7297 54.9512C81.7041 54.5151 80.8013 53.9071 80.0274 53.1271C79.2536 52.3533 78.6456 51.4504 78.2095 50.4248C77.7735 49.3992 77.5524 48.3121 77.5524 47.1575C77.5524 45.9844 77.7735 44.8851 78.2095 43.8717C78.6456 42.8583 79.2536 41.9678 80.0274 41.2063C80.8074 40.4447 81.7041 39.8428 82.7297 39.4068C83.7554 38.9769 84.8424 38.7558 85.9971 38.7558ZM73.0076 32H76.3486V55.6145H73.0076V32Z" fill="white"/>
<path d="M67.8669 52.4024V47.3786C67.8669 46.6907 67.738 46.0397 67.48 45.4378C67.2221 44.836 66.8659 44.3016 66.4114 43.8472C65.9569 43.3927 65.4226 43.0365 64.8207 42.7785C64.2188 42.5206 63.5678 42.3916 62.88 42.3916C62.1921 42.3916 61.535 42.5206 60.9208 42.7785C60.3066 43.0365 59.7723 43.3927 59.3117 43.8472C58.8572 44.3016 58.501 44.836 58.2431 45.4378C57.9851 46.0397 57.8561 46.6907 57.8561 47.3786C57.8561 48.0664 57.9851 48.7174 58.2431 49.3377C58.501 49.9519 58.8572 50.4924 59.3117 50.9468C59.7662 51.4013 60.3005 51.7575 60.9208 52.0155C61.535 52.2734 62.1921 52.4024 62.88 52.4024H67.8669ZM63.1686 39.0997C64.3294 39.0997 65.1155 39.3147 66.1104 39.7446C67.1115 40.1745 67.9836 40.7702 68.7329 41.5195C69.4822 42.2688 70.0779 43.147 70.5078 44.142C70.9377 45.143 71.1527 46.2178 71.1527 47.3724V55.682H63.1686C62.0386 55.682 60.9638 55.4671 59.9566 55.0372C58.9493 54.6072 58.0588 54.0115 57.2973 53.2438C56.5357 52.4822 55.9338 51.5917 55.5039 50.5845C55.074 49.5773 54.859 48.5025 54.859 47.3724C54.859 46.2117 55.074 45.1369 55.5039 44.142C55.9338 43.147 56.5357 42.2688 57.2973 41.5195C58.0588 40.7702 58.9493 40.1745 59.9566 39.7446C60.9638 39.3147 62.0386 39.0997 63.1686 39.0997ZM50.4064 39.0997H53.3789V55.6882H50.4064V39.0997ZM48.8833 39.0321L40.4263 55.3012L32 39.0321L35.2428 39.069C35.5867 39.7323 36.2561 40.8992 36.6983 41.7467C37.1405 42.6004 37.5827 43.4602 38.0311 44.3323C38.4732 45.2045 38.9093 46.052 39.3392 46.8627C39.7691 47.6734 40.1315 48.3735 40.4263 48.9693C40.7948 48.2568 41.2185 47.44 41.7037 46.5126C42.1828 45.5852 42.6557 44.6701 43.1224 43.7612C43.5892 42.8522 44.0191 42.0047 44.4183 41.2308C44.8114 40.457 45.315 39.4252 45.5361 39.026L48.8833 39.0321Z" fill="white"/>
<path d="M139.932 57.6841H32.2332V57.9912H139.932V57.6841Z" fill="white"/>
<path fill-rule="evenodd" clip-rule="evenodd" d="M141.136 56.7936C141.799 56.7936 142.34 57.3341 142.34 57.9974C142.34 58.6607 141.799 59.2011 141.136 59.2011C140.473 59.2011 139.932 58.6607 139.932 57.9974C139.932 57.328 140.473 56.7936 141.136 56.7936Z" fill="white"/>
<path d="M50.6399 62.5729H51.8621C52.1384 62.5729 52.3902 62.6159 52.6175 62.708C52.8447 62.8001 53.0474 62.9229 53.2132 63.0765C53.379 63.2362 53.508 63.4204 53.6001 63.6354C53.6923 63.8503 53.7353 64.0776 53.7353 64.3294V64.3417C53.7353 64.5873 53.6923 64.8207 53.6001 65.0357C53.508 65.2506 53.379 65.4349 53.2132 65.5945C53.0474 65.7542 52.8509 65.8771 52.6175 65.9692C52.3902 66.0613 52.1323 66.1043 51.8621 66.1043H50.6399V62.5729ZM51.8621 65.7297C52.0832 65.7297 52.2858 65.6928 52.4639 65.6253C52.6482 65.5577 52.8017 65.4594 52.9246 65.3305C53.0474 65.2076 53.1457 65.0602 53.2194 64.8883C53.2869 64.7163 53.3238 64.5382 53.3238 64.3417V64.3294C53.3238 64.1328 53.2869 63.9547 53.2194 63.7828C53.1518 63.6108 53.0535 63.4634 52.9246 63.3406C52.8017 63.2177 52.6482 63.1133 52.4639 63.0458C52.2858 62.9721 52.0832 62.9352 51.8621 62.9352H51.0391V65.7235H51.8621V65.7297Z" fill="white"/>
<path d="M55.5532 62.5729H58.102V62.9291H55.9524V64.1451H57.8747V64.5013H55.9524V65.7419H58.1266V66.0982H55.5532V62.5729Z" fill="white"/>
<path d="M59.9014 62.5729H61.2219C61.4184 62.5729 61.6026 62.5974 61.7623 62.6527C61.9281 62.7018 62.0632 62.7817 62.1799 62.8738C62.2966 62.9721 62.3826 63.0888 62.444 63.2239C62.5054 63.359 62.5362 63.5187 62.5362 63.6906V63.7029C62.5362 63.8933 62.4993 64.0591 62.4256 64.2065C62.3519 64.3478 62.2536 64.4706 62.1247 64.5689C62.0018 64.6672 61.8544 64.7409 61.6825 64.79C61.5166 64.8391 61.3385 64.8637 61.1481 64.8637H60.2945V66.1043H59.8953V62.5729H59.9014ZM61.1727 64.4952C61.3201 64.4952 61.4491 64.4768 61.5719 64.4399C61.6886 64.4031 61.793 64.3478 61.879 64.2802C61.965 64.2127 62.0325 64.1328 62.0755 64.0346C62.1185 63.9425 62.1431 63.8319 62.1431 63.7152V63.7029C62.1431 63.4511 62.0571 63.2607 61.8851 63.1318C61.7132 63.0028 61.4798 62.9352 61.1973 62.9352H60.3067V64.4891H61.1727V64.4952Z" fill="white"/>
<path d="M64.2744 62.5729H64.6736V66.0982H64.2744V62.5729Z" fill="white"/>
<path d="M66.6819 62.5729H67.0811V65.7297H69.0648V66.0982H66.6819V62.5729Z" fill="white"/>
<path d="M72.0741 62.5483H72.4488L74.0517 66.0982H73.6218L73.2103 65.1647H71.2942L70.8765 66.0982H70.4712L72.0741 62.5483ZM73.0568 64.8084L72.2584 63.009L71.4538 64.8084H73.0568Z" fill="white"/>
<path d="M76.7048 66.7062L77.0917 66.1412C76.8706 66.1105 76.6679 66.0429 76.4776 65.9446C76.2872 65.8402 76.1275 65.7112 75.9924 65.5516C75.8573 65.3919 75.7528 65.2076 75.6791 65.005C75.6054 64.7961 75.5686 64.5812 75.5686 64.3478V64.3355C75.5686 64.0899 75.6116 63.8503 75.7037 63.6292C75.7897 63.4081 75.9187 63.2116 76.0722 63.0458C76.2319 62.88 76.4161 62.751 76.6372 62.6527C76.8583 62.5545 77.0917 62.5115 77.3497 62.5115C77.5093 62.5115 77.6567 62.5238 77.7857 62.5545C77.9147 62.579 78.0375 62.622 78.1481 62.665C78.2586 62.7141 78.363 62.7694 78.4552 62.8431C78.5473 62.9107 78.6394 62.9905 78.7254 63.0704L78.4552 63.3652C78.3016 63.2239 78.1419 63.1072 77.97 63.0151C77.798 62.923 77.5892 62.88 77.3497 62.88C77.1531 62.88 76.975 62.9168 76.8092 62.9905C76.6434 63.0642 76.496 63.1686 76.3793 63.2976C76.2565 63.4266 76.1582 63.5801 76.0906 63.7582C76.0231 63.9363 75.9862 64.1206 75.9862 64.3232V64.3355C75.9862 64.5382 76.0231 64.7286 76.0906 64.9067C76.1582 65.0848 76.2565 65.2383 76.3793 65.3673C76.5021 65.4963 76.6434 65.6007 76.8092 65.6744C76.975 65.7481 77.1531 65.7849 77.3497 65.7849C77.5892 65.7849 77.798 65.742 77.9761 65.6498C78.1481 65.5639 78.32 65.4349 78.492 65.2752L78.7561 65.5331C78.6701 65.6253 78.578 65.7051 78.4859 65.7788C78.3937 65.8525 78.2893 65.9139 78.1849 65.9692C78.0805 66.0245 77.9638 66.0675 77.8348 66.0982C77.712 66.1289 77.5769 66.1473 77.4295 66.1534L77.0979 66.872L76.7048 66.7062Z" fill="white"/>
<path d="M81.7226 62.5483H82.0972L83.7002 66.0982H83.2703L82.8588 65.1647H80.9426L80.525 66.0982H80.1196L81.7226 62.5483ZM81.0777 62.2413C81.1268 62.0509 81.1883 61.9157 81.262 61.8359C81.3357 61.7561 81.4339 61.7131 81.5568 61.7131C81.612 61.7131 81.6735 61.7254 81.7349 61.7438C81.7963 61.7684 81.8577 61.7868 81.913 61.8113C81.9744 61.8359 82.0297 61.8605 82.0849 61.8789C82.1402 61.8973 82.1893 61.9096 82.2323 61.9096C82.2999 61.9096 82.349 61.8912 82.3859 61.8543C82.4227 61.8175 82.4596 61.7561 82.4964 61.6639L82.736 61.7315C82.6868 61.9219 82.6254 62.057 82.5517 62.1368C82.478 62.2167 82.3797 62.2597 82.2569 62.2597C82.2016 62.2597 82.1402 62.2474 82.0788 62.229C82.0174 62.2105 81.956 62.186 81.8946 62.1614C81.8331 62.1368 81.7779 62.1123 81.7226 62.0939C81.6673 62.0693 81.6182 62.0631 81.5752 62.0631C81.5076 62.0631 81.4585 62.0816 81.4217 62.1184C81.3848 62.1553 81.348 62.2167 81.3111 62.3088L81.0777 62.2413ZM82.6991 64.8084L81.9007 63.009L81.0962 64.8084H82.6991Z" fill="white"/>
<path d="M87.0042 66.1596C86.734 66.1596 86.4945 66.1105 86.2734 66.0122C86.0523 65.9139 85.8619 65.7849 85.7084 65.6191C85.5487 65.4533 85.432 65.2629 85.346 65.0418C85.26 64.8207 85.217 64.5935 85.217 64.3478V64.3355C85.217 64.096 85.26 63.8626 85.346 63.6415C85.432 63.4204 85.5548 63.2239 85.7145 63.0581C85.8742 62.8923 86.0646 62.7571 86.2857 62.6589C86.5068 62.5606 86.7524 62.5115 87.0227 62.5115C87.2929 62.5115 87.5324 62.5606 87.7535 62.6589C87.9746 62.7571 88.165 62.8861 88.3186 63.0519C88.4782 63.2178 88.5949 63.4081 88.6809 63.6292C88.7669 63.8503 88.8099 64.0776 88.8099 64.3232C88.816 64.3294 88.816 64.3294 88.8099 64.3355C88.8099 64.5751 88.7669 64.8084 88.6809 65.0295C88.5949 65.2506 88.4721 65.4472 88.3124 65.613C88.1527 65.7788 87.9623 65.9139 87.7412 66.0122C87.5201 66.1105 87.2745 66.1596 87.0042 66.1596ZM87.0165 65.7911C87.2192 65.7911 87.4034 65.7542 87.5754 65.6805C87.7474 65.6068 87.8886 65.5024 88.0115 65.3735C88.1343 65.2445 88.2264 65.0909 88.294 64.9128C88.3615 64.7409 88.3984 64.5505 88.3984 64.3478V64.3355C88.3984 64.1329 88.3615 63.9425 88.294 63.7705C88.2264 63.5924 88.1282 63.4389 88.0053 63.3099C87.8825 63.1809 87.7351 63.0765 87.5631 62.9967C87.3912 62.9168 87.2069 62.88 87.0042 62.88C86.8016 62.88 86.6173 62.9168 86.4454 62.9905C86.2734 63.0642 86.1321 63.1686 86.0093 63.2976C85.8865 63.4266 85.7944 63.5801 85.7268 63.7582C85.6592 63.9302 85.6224 64.1206 85.6224 64.3232V64.3355C85.6224 64.5382 85.6592 64.7225 85.7268 64.9006C85.7944 65.0787 85.8926 65.2322 86.0155 65.3612C86.1383 65.4902 86.2857 65.5946 86.4576 65.6744C86.6296 65.7542 86.8139 65.7911 87.0165 65.7911Z" fill="white"/>
<path d="M94.4174 62.5483H94.7859L96.3889 66.0982H95.959L95.5475 65.1647H93.6313L93.2137 66.0982H92.8083L94.4174 62.5483ZM95.394 64.8084L94.5956 63.009L93.791 64.8084H95.394Z" fill="white"/>
<path d="M100.553 62.5729H100.952V65.7297H102.936V66.0982H100.553V62.5729Z" fill="white"/>
<path d="M105.945 62.5483H106.32L107.923 66.0982H107.493L107.081 65.1647H105.165L104.747 66.0982H104.342L105.945 62.5483ZM106.928 64.8084L106.129 63.009L105.325 64.8084H106.928Z" fill="white"/>
<path d="M110.809 66.1473C110.527 66.1473 110.269 66.0982 110.035 66.0061C109.802 65.9139 109.581 65.7727 109.366 65.5823L109.612 65.2875C109.796 65.4533 109.98 65.5823 110.171 65.6621C110.361 65.742 110.576 65.785 110.822 65.785C111.061 65.785 111.251 65.7297 111.393 65.6191C111.534 65.5086 111.608 65.3612 111.608 65.1892V65.1769C111.608 65.0971 111.595 65.0234 111.565 64.9558C111.54 64.8883 111.491 64.833 111.423 64.7777C111.356 64.7225 111.264 64.6733 111.141 64.6303C111.024 64.5874 110.871 64.5444 110.686 64.5014C110.484 64.4584 110.306 64.4092 110.158 64.3478C110.011 64.2926 109.882 64.2189 109.79 64.139C109.691 64.0592 109.618 63.9671 109.575 63.8565C109.526 63.746 109.507 63.6231 109.507 63.4757V63.4634C109.507 63.3283 109.538 63.1994 109.593 63.0827C109.648 62.966 109.728 62.8616 109.833 62.7756C109.937 62.6896 110.06 62.622 110.201 62.5729C110.342 62.5238 110.496 62.4992 110.662 62.4992C110.92 62.4992 111.147 62.5361 111.337 62.6098C111.528 62.6835 111.718 62.7879 111.896 62.9353L111.663 63.2423C111.497 63.1072 111.331 63.009 111.165 62.9475C111 62.8861 110.828 62.8554 110.643 62.8554C110.41 62.8554 110.232 62.9107 110.097 63.0212C109.962 63.1318 109.894 63.2669 109.894 63.4266V63.4389C109.894 63.5249 109.906 63.5986 109.937 63.66C109.962 63.7275 110.011 63.7828 110.085 63.8381C110.152 63.8934 110.25 63.9425 110.379 63.9916C110.502 64.0346 110.662 64.0776 110.858 64.1206C111.251 64.2066 111.54 64.3294 111.724 64.4829C111.909 64.6365 112.001 64.8514 112.001 65.1155V65.1278C112.001 65.2814 111.97 65.4165 111.909 65.5393C111.847 65.6621 111.767 65.7665 111.663 65.8525C111.559 65.9385 111.43 66.0061 111.282 66.0552C111.147 66.1228 110.981 66.1473 110.809 66.1473Z" fill="white"/>
<path d="M113.794 62.5729H116.343V62.9291H114.193V64.1451H116.115V64.5013H114.193V65.7419H116.367V66.0982H113.794V62.5729Z" fill="white"/>
<path d="M118.142 62.5729H119.659C119.88 62.5729 120.071 62.6036 120.243 62.665C120.415 62.7264 120.55 62.8124 120.66 62.9229C120.746 63.0089 120.814 63.1133 120.863 63.23C120.912 63.3467 120.931 63.4757 120.931 63.6169V63.6292C120.931 63.7766 120.906 63.9056 120.863 64.0223C120.82 64.139 120.753 64.2372 120.667 64.3232C120.581 64.4092 120.482 64.4768 120.359 64.532C120.243 64.5873 120.114 64.6242 119.979 64.6487L121.06 66.0859H120.574L119.555 64.7163H119.543H118.548V66.0859H118.148V62.5729H118.142ZM119.629 64.3724C119.758 64.3724 119.88 64.3539 119.991 64.3232C120.102 64.2925 120.2 64.2434 120.28 64.182C120.359 64.1206 120.421 64.0469 120.47 63.9547C120.513 63.8688 120.538 63.7643 120.538 63.6477V63.6354C120.538 63.4143 120.458 63.2485 120.298 63.1256C120.138 63.0028 119.917 62.9414 119.635 62.9414H118.548V64.3724H119.629Z" fill="white"/>
</svg>
