<svg width="300" height="377" viewBox="0 0 300 377" fill="none" xmlns="http://www.w3.org/2000/svg">
<path d="M415 314C415 428.599 322.099 521.5 207.5 521.5C92.9009 521.5 0 428.599 0 314C0 199.401 229 162.5 298.5 0.5C413.099 0.5 415 199.401 415 314Z" fill="#202024"/>
<path d="M265.092 316.756V320.097H263.403C262.703 320.097 262.046 320.232 261.432 320.49C260.817 320.754 260.277 321.116 259.816 321.577C259.356 322.038 258.993 322.578 258.729 323.192C258.465 323.806 258.336 324.463 258.336 325.164V333.608H254.958V325.164C254.958 323.991 255.179 322.891 255.616 321.878C256.052 320.864 256.66 319.974 257.433 319.212C258.207 318.451 259.11 317.849 260.136 317.413C261.161 316.977 262.248 316.756 263.403 316.756H265.092ZM243.093 321.638C242.092 322.639 241.588 323.843 241.588 325.243C241.588 326.017 241.766 326.754 242.116 327.461L243.486 326.091L245.439 324.138C246.127 323.45 246.79 322.793 247.429 322.167C248.068 321.54 248.565 321.055 248.915 320.705C247.963 320.232 246.956 320.066 245.893 320.22C244.825 320.361 243.891 320.834 243.093 321.638ZM251.464 327.682L253.828 330.046L252.668 331.207C251.869 332.005 250.954 332.62 249.928 333.043C248.903 333.473 247.828 333.682 246.698 333.682C245.574 333.682 244.499 333.473 243.474 333.043C242.448 332.62 241.533 332.005 240.734 331.207C239.911 330.378 239.297 329.45 238.898 328.413C238.499 327.375 238.296 326.318 238.296 325.237C238.296 324.156 238.499 323.112 238.898 322.087C239.297 321.061 239.911 320.134 240.734 319.311C241.564 318.482 242.497 317.861 243.529 317.45C244.567 317.038 245.629 316.829 246.704 316.829C247.779 316.829 248.841 317.032 249.879 317.45C250.917 317.861 251.851 318.482 252.674 319.311L253.834 320.471L244.487 329.819C245.439 330.298 246.446 330.452 247.509 330.292C248.571 330.126 249.505 329.647 250.303 328.849L251.464 327.682ZM235.545 316.756V320.097H225.374C224.895 320.097 224.496 320.256 224.171 320.588C223.845 320.914 223.685 321.313 223.685 321.792C223.685 322.265 223.845 322.676 224.171 323.014C224.496 323.352 224.895 323.518 225.374 323.518H232.13C232.83 323.518 233.487 323.647 234.102 323.911C234.716 324.175 235.256 324.531 235.717 324.979C236.177 325.434 236.546 325.962 236.804 326.576C237.068 327.19 237.197 327.847 237.197 328.548C237.197 329.248 237.068 329.905 236.804 330.519C236.54 331.133 236.177 331.674 235.717 332.134C235.256 332.595 234.716 332.963 234.102 333.221C233.487 333.485 232.83 333.614 232.13 333.614H221.996V330.273H232.13C232.634 330.273 233.045 330.114 233.371 329.788C233.696 329.463 233.856 329.051 233.856 328.548C233.856 328.075 233.696 327.669 233.371 327.344C233.045 327.018 232.634 326.853 232.13 326.853H225.374C224.674 326.853 224.017 326.724 223.403 326.459C222.789 326.195 222.261 325.833 221.806 325.372C221.352 324.912 221.001 324.371 220.737 323.757C220.479 323.143 220.344 322.486 220.344 321.786C220.344 321.086 220.479 320.428 220.737 319.814C221.001 319.2 221.358 318.666 221.806 318.217C222.254 317.769 222.789 317.413 223.403 317.149C224.017 316.891 224.674 316.756 225.374 316.756H235.545ZM216.064 330.267V325.164C216.064 324.463 215.935 323.806 215.671 323.192C215.406 322.578 215.044 322.044 214.584 321.577C214.123 321.116 213.582 320.748 212.968 320.49C212.354 320.226 211.697 320.097 210.997 320.097C210.297 320.097 209.633 320.232 209.007 320.49C208.38 320.754 207.84 321.116 207.373 321.577C206.913 322.038 206.544 322.578 206.286 323.192C206.022 323.806 205.893 324.463 205.893 325.164C205.893 325.864 206.022 326.527 206.286 327.153C206.55 327.78 206.913 328.32 207.373 328.787C207.834 329.248 208.38 329.616 209.007 329.874C209.633 330.138 210.297 330.267 210.997 330.267H216.064ZM210.997 316.756C212.176 316.756 213.269 316.977 214.283 317.413C215.296 317.849 216.186 318.451 216.948 319.212C217.71 319.974 218.311 320.864 218.748 321.878C219.184 322.891 219.405 323.984 219.405 325.164V333.608H210.997C209.848 333.608 208.755 333.393 207.729 332.951C206.704 332.515 205.801 331.907 205.027 331.127C204.253 330.353 203.645 329.45 203.209 328.425C202.773 327.399 202.552 326.312 202.552 325.157C202.552 323.984 202.773 322.885 203.209 321.872C203.645 320.858 204.253 319.968 205.027 319.206C205.807 318.445 206.704 317.843 207.729 317.407C208.755 316.977 209.842 316.756 210.997 316.756ZM198.007 310H201.348V333.614H198.007V310Z" fill="white"/>
<path d="M192.867 330.402V325.379C192.867 324.691 192.738 324.04 192.48 323.438C192.222 322.836 191.866 322.302 191.411 321.847C190.957 321.393 190.423 321.036 189.821 320.779C189.219 320.521 188.568 320.392 187.88 320.392C187.192 320.392 186.535 320.521 185.921 320.779C185.307 321.036 184.772 321.393 184.312 321.847C183.857 322.302 183.501 322.836 183.243 323.438C182.985 324.04 182.856 324.691 182.856 325.379C182.856 326.066 182.985 326.717 183.243 327.338C183.501 327.952 183.857 328.492 184.312 328.947C184.766 329.401 185.3 329.758 185.921 330.015C186.535 330.273 187.192 330.402 187.88 330.402H192.867ZM188.169 317.1C189.329 317.1 190.116 317.315 191.11 317.745C192.112 318.174 192.984 318.77 193.733 319.519C194.482 320.269 195.078 321.147 195.508 322.142C195.938 323.143 196.153 324.218 196.153 325.372V333.682H188.169C187.039 333.682 185.964 333.467 184.957 333.037C183.949 332.607 183.059 332.012 182.297 331.244C181.536 330.482 180.934 329.592 180.504 328.584C180.074 327.577 179.859 326.502 179.859 325.372C179.859 324.212 180.074 323.137 180.504 322.142C180.934 321.147 181.536 320.269 182.297 319.519C183.059 318.77 183.949 318.174 184.957 317.745C185.964 317.315 187.039 317.1 188.169 317.1ZM175.406 317.1H178.379V333.688H175.406V317.1ZM173.883 317.032L165.426 333.301L157 317.032L160.243 317.069C160.587 317.732 161.256 318.899 161.698 319.747C162.141 320.6 162.583 321.46 163.031 322.332C163.473 323.204 163.909 324.052 164.339 324.863C164.769 325.673 165.131 326.374 165.426 326.969C165.795 326.257 166.219 325.44 166.704 324.513C167.183 323.585 167.656 322.67 168.122 321.761C168.589 320.852 169.019 320.005 169.418 319.231C169.811 318.457 170.315 317.425 170.536 317.026L173.883 317.032Z" fill="white"/>
<path d="M264.932 335.684H157.233V335.991H264.932V335.684Z" fill="white"/>
<path fill-rule="evenodd" clip-rule="evenodd" d="M266.136 334.794C266.799 334.794 267.34 335.334 267.34 335.997C267.34 336.661 266.799 337.201 266.136 337.201C265.473 337.201 264.932 336.661 264.932 335.997C264.932 335.328 265.473 334.794 266.136 334.794Z" fill="white"/>
<path d="M175.64 340.573H176.862C177.139 340.573 177.39 340.616 177.618 340.708C177.845 340.8 178.048 340.923 178.213 341.076C178.379 341.236 178.508 341.42 178.6 341.635C178.693 341.85 178.736 342.078 178.736 342.329V342.342C178.736 342.587 178.693 342.821 178.6 343.036C178.508 343.251 178.379 343.435 178.213 343.595C178.048 343.754 177.851 343.877 177.618 343.969C177.39 344.061 177.133 344.104 176.862 344.104H175.64V340.573ZM176.862 343.73C177.083 343.73 177.286 343.693 177.464 343.625C177.648 343.558 177.802 343.459 177.925 343.33C178.048 343.208 178.146 343.06 178.22 342.888C178.287 342.716 178.324 342.538 178.324 342.342V342.329C178.324 342.133 178.287 341.955 178.22 341.783C178.152 341.611 178.054 341.463 177.925 341.341C177.802 341.218 177.648 341.113 177.464 341.046C177.286 340.972 177.083 340.935 176.862 340.935H176.039V343.724H176.862V343.73Z" fill="white"/>
<path d="M180.553 340.573H183.102V340.929H180.952V342.145H182.875V342.501H180.952V343.742H183.127V344.098H180.553V340.573Z" fill="white"/>
<path d="M184.902 340.573H186.222C186.419 340.573 186.603 340.597 186.763 340.653C186.928 340.702 187.063 340.782 187.18 340.874C187.297 340.972 187.383 341.089 187.444 341.224C187.506 341.359 187.536 341.519 187.536 341.691V341.703C187.536 341.893 187.5 342.059 187.426 342.207C187.352 342.348 187.254 342.471 187.125 342.569C187.002 342.667 186.855 342.741 186.683 342.79C186.517 342.839 186.339 342.864 186.148 342.864H185.295V344.104H184.896V340.573H184.902ZM186.173 342.495C186.32 342.495 186.449 342.477 186.572 342.44C186.689 342.403 186.793 342.348 186.879 342.28C186.965 342.213 187.033 342.133 187.076 342.035C187.119 341.942 187.143 341.832 187.143 341.715V341.703C187.143 341.451 187.057 341.261 186.885 341.132C186.713 341.003 186.48 340.935 186.198 340.935H185.307V342.489H186.173V342.495Z" fill="white"/>
<path d="M189.274 340.573H189.674V344.098H189.274V340.573Z" fill="white"/>
<path d="M191.682 340.573H192.081V343.73H194.065V344.098H191.682V340.573Z" fill="white"/>
<path d="M197.074 340.548H197.449L199.052 344.098H198.622L198.21 343.165H196.294L195.877 344.098H195.471L197.074 340.548ZM198.057 342.808L197.258 341.009L196.454 342.808H198.057Z" fill="white"/>
<path d="M201.705 344.706L202.092 344.141C201.871 344.11 201.668 344.043 201.478 343.945C201.287 343.84 201.128 343.711 200.993 343.552C200.857 343.392 200.753 343.208 200.679 343.005C200.606 342.796 200.569 342.581 200.569 342.348V342.336C200.569 342.09 200.612 341.85 200.704 341.629C200.79 341.408 200.919 341.212 201.072 341.046C201.232 340.88 201.416 340.751 201.637 340.653C201.859 340.554 202.092 340.511 202.35 340.511C202.51 340.511 202.657 340.524 202.786 340.554C202.915 340.579 203.038 340.622 203.148 340.665C203.259 340.714 203.363 340.769 203.455 340.843C203.548 340.911 203.64 340.991 203.726 341.07L203.455 341.365C203.302 341.224 203.142 341.107 202.97 341.015C202.798 340.923 202.589 340.88 202.35 340.88C202.153 340.88 201.975 340.917 201.809 340.991C201.644 341.064 201.496 341.169 201.38 341.298C201.257 341.427 201.158 341.58 201.091 341.758C201.023 341.936 200.986 342.121 200.986 342.323V342.336C200.986 342.538 201.023 342.729 201.091 342.907C201.158 343.085 201.257 343.238 201.38 343.367C201.502 343.496 201.644 343.601 201.809 343.674C201.975 343.748 202.153 343.785 202.35 343.785C202.589 343.785 202.798 343.742 202.976 343.65C203.148 343.564 203.32 343.435 203.492 343.275L203.756 343.533C203.67 343.625 203.578 343.705 203.486 343.779C203.394 343.853 203.29 343.914 203.185 343.969C203.081 344.024 202.964 344.067 202.835 344.098C202.712 344.129 202.577 344.147 202.43 344.153L202.098 344.872L201.705 344.706Z" fill="white"/>
<path d="M206.723 340.548H207.097L208.7 344.098H208.27L207.859 343.165H205.943L205.525 344.098H205.12L206.723 340.548ZM206.078 340.241C206.127 340.051 206.188 339.916 206.262 339.836C206.336 339.756 206.434 339.713 206.557 339.713C206.612 339.713 206.673 339.725 206.735 339.744C206.796 339.768 206.858 339.787 206.913 339.811C206.974 339.836 207.03 339.86 207.085 339.879C207.14 339.897 207.189 339.91 207.232 339.91C207.3 339.91 207.349 339.891 207.386 339.854C207.423 339.817 207.46 339.756 207.496 339.664L207.736 339.731C207.687 339.922 207.625 340.057 207.552 340.137C207.478 340.217 207.38 340.26 207.257 340.26C207.202 340.26 207.14 340.247 207.079 340.229C207.017 340.211 206.956 340.186 206.895 340.161C206.833 340.137 206.778 340.112 206.723 340.094C206.667 340.069 206.618 340.063 206.575 340.063C206.508 340.063 206.459 340.082 206.422 340.118C206.385 340.155 206.348 340.217 206.311 340.309L206.078 340.241ZM207.699 342.808L206.901 341.009L206.096 342.808H207.699Z" fill="white"/>
<path d="M212.004 344.16C211.734 344.16 211.495 344.11 211.274 344.012C211.053 343.914 210.862 343.785 210.709 343.619C210.549 343.453 210.432 343.263 210.346 343.042C210.26 342.821 210.217 342.593 210.217 342.348V342.336C210.217 342.096 210.26 341.863 210.346 341.642C210.432 341.42 210.555 341.224 210.715 341.058C210.874 340.892 211.065 340.757 211.286 340.659C211.507 340.561 211.753 340.511 212.023 340.511C212.293 340.511 212.533 340.561 212.754 340.659C212.975 340.757 213.165 340.886 213.319 341.052C213.478 341.218 213.595 341.408 213.681 341.629C213.767 341.85 213.81 342.078 213.81 342.323C213.816 342.329 213.816 342.329 213.81 342.336C213.81 342.575 213.767 342.808 213.681 343.03C213.595 343.251 213.472 343.447 213.313 343.613C213.153 343.779 212.963 343.914 212.741 344.012C212.52 344.11 212.275 344.16 212.004 344.16ZM212.017 343.791C212.219 343.791 212.404 343.754 212.576 343.681C212.748 343.607 212.889 343.502 213.012 343.373C213.135 343.244 213.227 343.091 213.294 342.913C213.362 342.741 213.399 342.55 213.399 342.348V342.336C213.399 342.133 213.362 341.942 213.294 341.77C213.227 341.592 213.128 341.439 213.006 341.31C212.883 341.181 212.735 341.077 212.563 340.997C212.391 340.917 212.207 340.88 212.004 340.88C211.802 340.88 211.618 340.917 211.446 340.991C211.274 341.064 211.132 341.169 211.01 341.298C210.887 341.427 210.795 341.58 210.727 341.758C210.659 341.93 210.623 342.121 210.623 342.323V342.336C210.623 342.538 210.659 342.722 210.727 342.901C210.795 343.079 210.893 343.232 211.016 343.361C211.139 343.49 211.286 343.595 211.458 343.674C211.63 343.754 211.814 343.791 212.017 343.791Z" fill="white"/>
<path d="M219.418 340.548H219.786L221.389 344.098H220.959L220.548 343.165H218.632L218.214 344.098H217.809L219.418 340.548ZM220.394 342.808L219.596 341.009L218.791 342.808H220.394Z" fill="white"/>
<path d="M225.553 340.573H225.952V343.73H227.936V344.098H225.553V340.573Z" fill="white"/>
<path d="M230.945 340.548H231.32L232.923 344.098H232.493L232.081 343.165H230.165L229.748 344.098H229.342L230.945 340.548ZM231.928 342.808L231.129 341.009L230.325 342.808H231.928Z" fill="white"/>
<path d="M235.809 344.147C235.527 344.147 235.269 344.098 235.036 344.006C234.802 343.914 234.581 343.773 234.366 343.582L234.612 343.287C234.796 343.453 234.98 343.582 235.171 343.662C235.361 343.742 235.576 343.785 235.822 343.785C236.061 343.785 236.252 343.73 236.393 343.619C236.534 343.509 236.608 343.361 236.608 343.189V343.177C236.608 343.097 236.596 343.023 236.565 342.956C236.54 342.888 236.491 342.833 236.424 342.778C236.356 342.722 236.264 342.673 236.141 342.63C236.024 342.587 235.871 342.544 235.687 342.501C235.484 342.458 235.306 342.409 235.158 342.348C235.011 342.292 234.882 342.219 234.79 342.139C234.692 342.059 234.618 341.967 234.575 341.856C234.526 341.746 234.507 341.623 234.507 341.476V341.463C234.507 341.328 234.538 341.199 234.593 341.083C234.649 340.966 234.729 340.862 234.833 340.776C234.937 340.69 235.06 340.622 235.201 340.573C235.343 340.524 235.496 340.499 235.662 340.499C235.92 340.499 236.147 340.536 236.338 340.61C236.528 340.683 236.718 340.788 236.897 340.935L236.663 341.242C236.497 341.107 236.332 341.009 236.166 340.947C236 340.886 235.828 340.855 235.644 340.855C235.41 340.855 235.232 340.911 235.097 341.021C234.962 341.132 234.894 341.267 234.894 341.427V341.439C234.894 341.525 234.907 341.598 234.937 341.66C234.962 341.727 235.011 341.783 235.085 341.838C235.152 341.893 235.251 341.942 235.38 341.992C235.502 342.035 235.662 342.078 235.859 342.121C236.252 342.207 236.54 342.329 236.725 342.483C236.909 342.636 237.001 342.851 237.001 343.115V343.128C237.001 343.281 236.97 343.416 236.909 343.539C236.847 343.662 236.768 343.766 236.663 343.852C236.559 343.938 236.43 344.006 236.282 344.055C236.147 344.123 235.981 344.147 235.809 344.147Z" fill="white"/>
<path d="M238.794 340.573H241.343V340.929H239.194V342.145H241.116V342.501H239.194V343.742H241.368V344.098H238.794V340.573Z" fill="white"/>
<path d="M243.143 340.573H244.66C244.881 340.573 245.071 340.604 245.243 340.665C245.415 340.726 245.55 340.812 245.661 340.923C245.747 341.009 245.814 341.113 245.863 341.23C245.912 341.347 245.931 341.476 245.931 341.617V341.629C245.931 341.777 245.906 341.906 245.863 342.022C245.82 342.139 245.753 342.237 245.667 342.323C245.581 342.409 245.483 342.477 245.36 342.532C245.243 342.587 245.114 342.624 244.979 342.649L246.06 344.086H245.575L244.555 342.716H244.543H243.548V344.086H243.149V340.573H243.143ZM244.629 342.372C244.758 342.372 244.881 342.354 244.991 342.323C245.102 342.293 245.2 342.243 245.28 342.182C245.36 342.121 245.421 342.047 245.47 341.955C245.513 341.869 245.538 341.764 245.538 341.648V341.635C245.538 341.414 245.458 341.248 245.298 341.126C245.139 341.003 244.918 340.941 244.635 340.941H243.548V342.372H244.629Z" fill="white"/>
</svg>
